<svg width="13" height="13" viewBox="0 0 13 13" fill="none" xmlns="http://www.w3.org/2000/svg">
<path fill-rule="evenodd" clip-rule="evenodd" d="M13 6.575C13 6.89256 12.7426 7.15 12.425 7.15H0.575C0.257436 7.15 0 6.89256 0 6.575C0 6.25744 0.257436 6 0.575 6H12.425C12.7426 6 13 6.25744 13 6.575Z" fill="#272636"/>
<path fill-rule="evenodd" clip-rule="evenodd" d="M6.575 0C6.89256 0 7.15 0.257436 7.15 0.575L7.15 12.425C7.15 12.7426 6.89256 13 6.575 13C6.25744 13 6 12.7426 6 12.425L6 0.575C6 0.257436 6.25744 0 6.575 0Z" fill="#272636"/>
</svg>
