<svg width="32" height="32" viewBox="0 0 32 32" fill="none" xmlns="http://www.w3.org/2000/svg">
<path d="M26.3334 5.66669H5.66669V26.3334V26.3334C7.80679 26.3334 9.54169 24.5985 9.54169 22.4584V9.54169H22.4584C24.5985 9.54169 26.3334 7.80679 26.3334 5.66669V5.66669Z" fill="url(#paint0_linear_70_203)"/>
<path d="M21.3287 13.6055C21.2783 13.6055 21.228 13.5925 21.1839 13.5665C19.9747 12.923 18.9293 12.65 17.6761 12.65C16.4292 12.65 15.2452 12.9555 14.1684 13.5665C14.0172 13.651 13.8283 13.5925 13.7401 13.4365C13.6583 13.2805 13.7149 13.079 13.8661 12.9945C15.0374 12.338 16.3221 12 17.6761 12C19.0175 12 20.1888 12.3055 21.4736 12.988C21.631 13.0725 21.6877 13.2675 21.6058 13.4235C21.5491 13.5405 21.4421 13.6055 21.3287 13.6055V13.6055ZM12.3169 17.018C12.2539 17.018 12.1909 16.9985 12.1342 16.9595C11.9894 16.8555 11.9579 16.654 12.0587 16.5045C12.6821 15.5945 13.4756 14.8795 14.4203 14.379C16.3977 13.326 18.9293 13.3195 20.9131 14.3725C21.8577 14.873 22.6512 15.5815 23.2747 16.485C23.3754 16.628 23.3439 16.836 23.1991 16.94C23.0543 17.044 22.859 17.0115 22.7583 16.862C22.1915 16.043 21.4736 15.3995 20.6234 14.951C18.816 13.9955 16.5048 13.9955 14.7037 14.9575C13.8472 15.4125 13.1293 16.0625 12.5625 16.8815C12.5121 16.9725 12.4176 17.018 12.3169 17.018V17.018ZM16.2529 24.8635C16.171 24.8635 16.0891 24.831 16.0324 24.766C15.4846 24.2005 15.1886 23.8365 14.7666 23.05C14.3321 22.2505 14.1054 21.2755 14.1054 20.229C14.1054 18.2985 15.705 16.7255 17.6698 16.7255C19.6347 16.7255 21.2342 18.2985 21.2342 20.229C21.2342 20.411 21.0957 20.554 20.9194 20.554C20.743 20.554 20.6045 20.411 20.6045 20.229C20.6045 18.656 19.2883 17.3755 17.6698 17.3755C16.0513 17.3755 14.7351 18.656 14.7351 20.229C14.7351 21.165 14.9367 22.0295 15.3208 22.7315C15.7239 23.479 16.001 23.7975 16.4859 24.3045C16.6055 24.4345 16.6055 24.636 16.4859 24.766C16.4166 24.831 16.3347 24.8635 16.2529 24.8635ZM20.7682 23.661C20.0188 23.661 19.3576 23.466 18.816 23.0825C17.8776 22.426 17.3172 21.36 17.3172 20.229C17.3172 20.047 17.4557 19.904 17.632 19.904C17.8084 19.904 17.9469 20.047 17.9469 20.229C17.9469 21.1455 18.4003 22.01 19.1686 22.543C19.6158 22.855 20.1385 23.0045 20.7682 23.0045C20.9194 23.0045 21.1713 22.985 21.4232 22.9395C21.5932 22.907 21.7569 23.024 21.7884 23.206C21.8199 23.3815 21.7066 23.5505 21.5302 23.583C21.1713 23.6545 20.8564 23.661 20.7682 23.661V23.661ZM19.5024 25C19.4772 25 19.4457 24.9935 19.4205 24.987C18.4192 24.701 17.7643 24.3175 17.0778 23.622C16.1962 22.7185 15.7113 21.516 15.7113 20.229C15.7113 19.176 16.5803 18.318 17.6509 18.318C18.7215 18.318 19.5906 19.176 19.5906 20.229C19.5906 20.9245 20.1763 21.49 20.9005 21.49C21.6247 21.49 22.2104 20.9245 22.2104 20.229C22.2104 17.7785 20.1637 15.7895 17.6446 15.7895C15.8561 15.7895 14.2187 16.8165 13.4819 18.409C13.2363 18.9355 13.1104 19.553 13.1104 20.229C13.1104 20.736 13.1544 21.5355 13.5323 22.5755C13.5953 22.7445 13.5134 22.933 13.3497 22.9915C13.1859 23.0565 13.0033 22.9655 12.9466 22.803C12.638 21.9515 12.4869 21.1065 12.4869 20.229C12.4869 19.449 12.6317 18.7405 12.9151 18.123C13.7527 16.3095 15.6105 15.133 17.6446 15.133C20.51 15.133 22.8401 17.4145 22.8401 20.2225C22.8401 21.2755 21.9711 22.1335 20.9005 22.1335C19.8299 22.1335 18.9608 21.2755 18.9608 20.2225C18.9608 19.527 18.3751 18.9615 17.6509 18.9615C16.9267 18.9615 16.341 19.527 16.341 20.2225C16.341 21.334 16.7567 22.374 17.5187 23.154C18.1169 23.765 18.69 24.103 19.578 24.3565C19.748 24.402 19.8425 24.584 19.7984 24.753C19.7669 24.9025 19.6347 25 19.5024 25V25Z" fill="#FF7701"/>
<defs>
<linearGradient id="paint0_linear_70_203" x1="43.5329" y1="41.2895" x2="5.66669" y2="5.66669" gradientUnits="userSpaceOnUse">
<stop stop-color="white"/>
<stop offset="1" stop-color="#FF7701"/>
</linearGradient>
</defs>
</svg>
