<svg width="92" height="40" viewBox="0 0 92 40" fill="none" xmlns="http://www.w3.org/2000/svg">
<path d="M32 8H8V32H12.5V12.5H32V8Z" fill="url(#paint0_linear_13_808)"/>
<path d="M26.5237 16.976C26.4615 16.976 26.3992 16.96 26.3448 16.928C24.8511 16.136 23.5598 15.8 22.0117 15.8C20.4714 15.8 19.0088 16.176 17.6786 16.928C17.4919 17.032 17.2585 16.96 17.1496 16.768C17.0484 16.576 17.1184 16.328 17.3052 16.224C18.7521 15.416 20.3391 15 22.0117 15C23.6687 15 25.1156 15.376 26.7026 16.216C26.8971 16.32 26.9671 16.56 26.866 16.752C26.796 16.896 26.6637 16.976 26.5237 16.976V16.976ZM15.3914 21.176C15.3136 21.176 15.2358 21.152 15.1658 21.104C14.9869 20.976 14.948 20.728 15.0725 20.544C15.8426 19.424 16.8228 18.544 17.9897 17.928C20.4325 16.632 23.5598 16.624 26.0103 17.92C27.1772 18.536 28.1574 19.408 28.9275 20.52C29.052 20.696 29.0131 20.952 28.8342 21.08C28.6553 21.208 28.4141 21.168 28.2896 20.984C27.5895 19.976 26.7026 19.184 25.6524 18.632C23.4197 17.456 20.5647 17.456 18.3398 18.64C17.2818 19.2 16.395 20 15.6948 21.008C15.6326 21.12 15.5159 21.176 15.3914 21.176V21.176ZM20.2535 30.832C20.1524 30.832 20.0513 30.792 19.9813 30.712C19.3044 30.016 18.9388 29.568 18.4176 28.6C17.8808 27.616 17.6008 26.416 17.6008 25.128C17.6008 22.752 19.5767 20.816 22.0039 20.816C24.4311 20.816 26.407 22.752 26.407 25.128C26.407 25.352 26.2359 25.528 26.018 25.528C25.8002 25.528 25.6291 25.352 25.6291 25.128C25.6291 23.192 24.0032 21.616 22.0039 21.616C20.0046 21.616 18.3787 23.192 18.3787 25.128C18.3787 26.28 18.6276 27.344 19.1022 28.208C19.6001 29.128 19.9424 29.52 20.5414 30.144C20.6892 30.304 20.6892 30.552 20.5414 30.712C20.4558 30.792 20.3547 30.832 20.2535 30.832ZM25.8313 29.352C24.9056 29.352 24.0888 29.112 23.4197 28.64C22.2606 27.832 21.5682 26.52 21.5682 25.128C21.5682 24.904 21.7394 24.728 21.9572 24.728C22.175 24.728 22.3462 24.904 22.3462 25.128C22.3462 26.256 22.9063 27.32 23.8554 27.976C24.4077 28.36 25.0534 28.544 25.8313 28.544C26.018 28.544 26.3292 28.52 26.6404 28.464C26.8504 28.424 27.0527 28.568 27.0916 28.792C27.1305 29.008 26.9905 29.216 26.7726 29.256C26.3292 29.344 25.9403 29.352 25.8313 29.352V29.352ZM24.2677 31C24.2366 31 24.1977 30.992 24.1666 30.984C22.9296 30.632 22.1206 30.16 21.2726 29.304C20.1835 28.192 19.5845 26.712 19.5845 25.128C19.5845 23.832 20.6581 22.776 21.9806 22.776C23.303 22.776 24.3766 23.832 24.3766 25.128C24.3766 25.984 25.1001 26.68 25.9947 26.68C26.8893 26.68 27.6128 25.984 27.6128 25.128C27.6128 22.112 25.0845 19.664 21.9728 19.664C19.7634 19.664 17.7408 20.928 16.8306 22.888C16.5272 23.536 16.3716 24.296 16.3716 25.128C16.3716 25.752 16.4261 26.736 16.8928 28.016C16.9706 28.224 16.8695 28.456 16.6672 28.528C16.465 28.608 16.2394 28.496 16.1694 28.296C15.7882 27.248 15.6015 26.208 15.6015 25.128C15.6015 24.168 15.7804 23.296 16.1305 22.536C17.1651 20.304 19.46 18.856 21.9728 18.856C25.5124 18.856 28.3908 21.664 28.3908 25.12C28.3908 26.416 27.3172 27.472 25.9947 27.472C24.6722 27.472 23.5987 26.416 23.5987 25.12C23.5987 24.264 22.8752 23.568 21.9806 23.568C21.0859 23.568 20.3624 24.264 20.3624 25.12C20.3624 26.488 20.8759 27.768 21.8172 28.728C22.5562 29.48 23.2641 29.896 24.361 30.208C24.5711 30.264 24.6878 30.488 24.6333 30.696C24.5944 30.88 24.4311 31 24.2677 31V31Z" fill="#FF9900"/>
<path d="M73.2078 27.6152C72.6796 27.6152 72.4155 27.3322 72.4155 26.7663V12.2337C72.4155 11.6678 72.6796 11.3848 73.2078 11.3848H77.4408C80.1572 11.3848 82.0398 11.8262 83.0886 12.7091C84.145 13.5919 84.6732 14.8444 84.6732 16.4667C84.6732 18.089 84.145 19.3416 83.0886 20.2244C82.0398 21.1072 80.1572 21.5486 77.4408 21.5486H75.7205V26.7663C75.7205 27.3322 75.4564 27.6152 74.9282 27.6152H73.2078ZM75.7205 18.787H77.4295C78.9386 18.787 79.9648 18.6096 80.5081 18.255C81.0513 17.8928 81.323 17.2967 81.323 16.4667C81.323 15.6367 81.0513 15.0444 80.5081 14.6898C79.9648 14.3276 78.9386 14.1465 77.4295 14.1465H75.7205V18.787Z" fill="#FF9900"/>
<path d="M57.7358 14.2823C57.1699 14.2823 56.887 14.0371 56.887 13.5466V12.1205C56.887 11.6301 57.1699 11.3848 57.7358 11.3848H69.371C69.9369 11.3848 70.2199 11.6301 70.2199 12.1205V13.5466C70.2199 14.0371 69.9369 14.2823 69.371 14.2823H65.2059V26.9927C65.2059 27.4077 65.0172 27.6152 64.64 27.6152H62.4669C62.0896 27.6152 61.9009 27.4077 61.9009 26.9927V14.2823H57.7358Z" fill="#FF9900"/>
<path d="M40 19.5C40 16.8968 40.6715 14.8293 42.0146 13.2976C43.3577 11.7659 45.2743 11 47.7643 11C50.2543 11 52.1709 11.7659 53.514 13.2976C54.8571 14.8293 55.5286 16.8968 55.5286 19.5C55.5286 22.1032 54.8571 24.1707 53.514 25.7024C52.1709 27.2341 50.2543 28 47.7643 28C45.2743 28 43.3577 27.2341 42.0146 25.7024C40.6715 24.1707 40 22.1032 40 19.5ZM43.5313 19.5C43.5313 21.3864 43.8671 22.8313 44.5386 23.8349C45.2177 24.8309 46.2929 25.3289 47.7643 25.3289C49.2357 25.3289 50.3071 24.8309 50.9787 23.8349C51.6578 22.8313 51.9973 21.3864 51.9973 19.5C51.9973 17.6136 51.6578 16.1724 50.9787 15.1764C50.3071 14.1729 49.2357 13.6711 47.7643 13.6711C46.2929 13.6711 45.2177 14.1729 44.5386 15.1764C43.8671 16.1724 43.5313 17.6136 43.5313 19.5Z" fill="#FF9900"/>
<defs>
<linearGradient id="paint0_linear_13_808" x1="25.25" y1="25.25" x2="2" y2="2" gradientUnits="userSpaceOnUse">
<stop stop-color="white"/>
<stop offset="1" stop-color="#FF9900"/>
</linearGradient>
</defs>
</svg>
