<svg width="92" height="40" viewBox="0 0 92 40" fill="none" xmlns="http://www.w3.org/2000/svg">
<path d="M73.2077 27.6151C72.6796 27.6151 72.4155 27.3322 72.4155 26.7663V12.2336C72.4155 11.6677 72.6796 11.3848 73.2077 11.3848H77.4408C80.1571 11.3848 82.0397 11.8262 83.0886 12.709C84.1449 13.5918 84.6731 14.8444 84.6731 16.4667C84.6731 18.0889 84.1449 19.3415 83.0886 20.2243C82.0397 21.1071 80.1571 21.5485 77.4408 21.5485H75.7204V26.7663C75.7204 27.3322 75.4563 27.6151 74.9281 27.6151H73.2077ZM75.7204 18.7869H77.4294C78.9385 18.7869 79.9647 18.6096 80.508 18.2549C81.0513 17.8928 81.3229 17.2967 81.3229 16.4667C81.3229 15.6367 81.0513 15.0443 80.508 14.6897C79.9647 14.3275 78.9385 14.1464 77.4294 14.1464H75.7204V18.7869Z" fill="#FF7701"/>
<path d="M57.7358 14.2822C57.1699 14.2822 56.8869 14.037 56.8869 13.5465V12.1205C56.8869 11.63 57.1699 11.3848 57.7358 11.3848H69.371C69.9369 11.3848 70.2198 11.63 70.2198 12.1205V13.5465C70.2198 14.037 69.9369 14.2822 69.371 14.2822H65.2058V26.9926C65.2058 27.4076 65.0172 27.6151 64.6399 27.6151H62.4668C62.0896 27.6151 61.9009 27.4076 61.9009 26.9926V14.2822H57.7358Z" fill="#FF7701"/>
<path d="M40 19.5C40 16.8968 40.6715 14.8293 42.0146 13.2976C43.3577 11.7659 45.2743 11 47.7643 11C50.2543 11 52.1709 11.7659 53.514 13.2976C54.8571 14.8293 55.5286 16.8968 55.5286 19.5C55.5286 22.1032 54.8571 24.1707 53.514 25.7024C52.1709 27.2341 50.2543 28 47.7643 28C45.2743 28 43.3577 27.2341 42.0146 25.7024C40.6715 24.1707 40 22.1032 40 19.5ZM43.5313 19.5C43.5313 21.3864 43.8671 22.8313 44.5386 23.8349C45.2177 24.8309 46.2929 25.3289 47.7643 25.3289C49.2357 25.3289 50.3071 24.8309 50.9787 23.8349C51.6578 22.8313 51.9973 21.3864 51.9973 19.5C51.9973 17.6136 51.6578 16.1724 50.9787 15.1764C50.3071 14.1729 49.2357 13.6711 47.7643 13.6711C46.2929 13.6711 45.2177 14.1729 44.5386 15.1764C43.8671 16.1724 43.5313 17.6136 43.5313 19.5Z" fill="#FF7701"/>
<path d="M30.3334 9.66663H9.66669V30.3333V30.3333C11.8068 30.3333 13.5417 28.5984 13.5417 26.4583V13.5416H26.4584C28.5985 13.5416 30.3334 11.8067 30.3334 9.66663V9.66663Z" fill="url(#paint0_linear_70_192)"/>
<path d="M25.3287 17.6055C25.2783 17.6055 25.228 17.5925 25.1839 17.5665C23.9747 16.923 22.9293 16.65 21.6761 16.65C20.4292 16.65 19.2452 16.9555 18.1684 17.5665C18.0172 17.651 17.8283 17.5925 17.7401 17.4365C17.6583 17.2805 17.7149 17.079 17.8661 16.9945C19.0374 16.338 20.3221 16 21.6761 16C23.0175 16 24.1888 16.3055 25.4736 16.988C25.631 17.0725 25.6877 17.2675 25.6058 17.4235C25.5491 17.5405 25.4421 17.6055 25.3287 17.6055V17.6055ZM16.3169 21.018C16.2539 21.018 16.1909 20.9985 16.1342 20.9595C15.9894 20.8555 15.9579 20.654 16.0587 20.5045C16.6821 19.5945 17.4756 18.8795 18.4203 18.379C20.3977 17.326 22.9293 17.3195 24.9131 18.3725C25.8577 18.873 26.6512 19.5815 27.2747 20.485C27.3754 20.628 27.3439 20.836 27.1991 20.94C27.0543 21.044 26.859 21.0115 26.7583 20.862C26.1915 20.043 25.4736 19.3995 24.6234 18.951C22.816 17.9955 20.5048 17.9955 18.7037 18.9575C17.8472 19.4125 17.1293 20.0625 16.5625 20.8815C16.5121 20.9725 16.4176 21.018 16.3169 21.018V21.018ZM20.2529 28.8635C20.171 28.8635 20.0891 28.831 20.0324 28.766C19.4846 28.2005 19.1886 27.8365 18.7666 27.05C18.3321 26.2505 18.1054 25.2755 18.1054 24.229C18.1054 22.2985 19.705 20.7255 21.6698 20.7255C23.6347 20.7255 25.2342 22.2985 25.2342 24.229C25.2342 24.411 25.0957 24.554 24.9194 24.554C24.743 24.554 24.6045 24.411 24.6045 24.229C24.6045 22.656 23.2883 21.3755 21.6698 21.3755C20.0513 21.3755 18.7351 22.656 18.7351 24.229C18.7351 25.165 18.9367 26.0295 19.3208 26.7315C19.7239 27.479 20.001 27.7975 20.4859 28.3045C20.6055 28.4345 20.6055 28.636 20.4859 28.766C20.4166 28.831 20.3347 28.8635 20.2529 28.8635ZM24.7682 27.661C24.0188 27.661 23.3576 27.466 22.816 27.0825C21.8776 26.426 21.3172 25.36 21.3172 24.229C21.3172 24.047 21.4557 23.904 21.632 23.904C21.8084 23.904 21.9469 24.047 21.9469 24.229C21.9469 25.1455 22.4003 26.01 23.1686 26.543C23.6158 26.855 24.1385 27.0045 24.7682 27.0045C24.9194 27.0045 25.1713 26.985 25.4232 26.9395C25.5932 26.907 25.7569 27.024 25.7884 27.206C25.8199 27.3815 25.7066 27.5505 25.5302 27.583C25.1713 27.6545 24.8564 27.661 24.7682 27.661V27.661ZM23.5024 29C23.4772 29 23.4457 28.9935 23.4205 28.987C22.4192 28.701 21.7643 28.3175 21.0778 27.622C20.1962 26.7185 19.7113 25.516 19.7113 24.229C19.7113 23.176 20.5803 22.318 21.6509 22.318C22.7215 22.318 23.5906 23.176 23.5906 24.229C23.5906 24.9245 24.1763 25.49 24.9005 25.49C25.6247 25.49 26.2104 24.9245 26.2104 24.229C26.2104 21.7785 24.1637 19.7895 21.6446 19.7895C19.8561 19.7895 18.2187 20.8165 17.4819 22.409C17.2363 22.9355 17.1104 23.553 17.1104 24.229C17.1104 24.736 17.1544 25.5355 17.5323 26.5755C17.5953 26.7445 17.5134 26.933 17.3497 26.9915C17.1859 27.0565 17.0033 26.9655 16.9466 26.803C16.638 25.9515 16.4869 25.1065 16.4869 24.229C16.4869 23.449 16.6317 22.7405 16.9151 22.123C17.7527 20.3095 19.6105 19.133 21.6446 19.133C24.51 19.133 26.8401 21.4145 26.8401 24.2225C26.8401 25.2755 25.9711 26.1335 24.9005 26.1335C23.8299 26.1335 22.9608 25.2755 22.9608 24.2225C22.9608 23.527 22.3751 22.9615 21.6509 22.9615C20.9267 22.9615 20.341 23.527 20.341 24.2225C20.341 25.334 20.7567 26.374 21.5187 27.154C22.1169 27.765 22.69 28.103 23.578 28.3565C23.748 28.402 23.8425 28.584 23.7984 28.753C23.7669 28.9025 23.6347 29 23.5024 29V29Z" fill="#FF7701"/>
<defs>
<linearGradient id="paint0_linear_70_192" x1="47.5329" y1="45.2894" x2="9.66669" y2="9.66663" gradientUnits="userSpaceOnUse">
<stop stop-color="white"/>
<stop offset="1" stop-color="#FF7701"/>
</linearGradient>
</defs>
</svg>
