<svg xmlns="http://www.w3.org/2000/svg" xmlns:xlink="http://www.w3.org/1999/xlink" width="83.0400390625" height="27.010009765625" viewBox="0 0 83.0400390625 27.010009765625" fill="none"><g opacity="1"  transform="translate(0 0)"><g opacity="1"  transform="translate(0 0)"><path id="并集" fill-rule="evenodd" fill="url(#linear_0)" opacity="1" d="M27.0104 0.0301905L0.0084 0.000488281L0.0018 6.00049L0.0210965 6.00051L9.29832e-05 27.004L6.00009 27.01L6.0211 6.00711L27.0038 6.03019L27.0104 0.0301905Z"></path><path id="并集" fill-rule="evenodd" fill="url(#linear_1)" opacity="1" d="M21.044 26.4994L21.0445 26.9991L27.0445 26.9931L27.0175 0.00710106L21.0175 0.0131016L21.0385 21.0046L0.00502777 21.0046L0.00502777 27.0046L21.044 27.0046L21.044 26.4994Z"></path></g><path id="文本 1" fill-rule="evenodd" style="fill:#6B6B6B" opacity="1" d="M39.64 20.78L39.64 6.90002L43.66 6.90002L48.7 17.36L48.82 17.36L48.82 6.90002L51.38 6.90002L51.38 20.78L47.82 20.78L42.34 9.66002L42.22 9.66002L42.22 20.78L39.64 20.78ZM59.04 9.78002C61.58 9.78002 62.65 10.65 62.65 10.65C63.72 11.52 63.72 13.24 63.72 13.24L63.72 20.78L61.5 20.78L61.24 19.4C60.84 20.1 59.87 20.54 59.87 20.54C58.9 20.98 57.64 20.98 57.64 20.98C53.94 20.98 53.94 17.72 53.94 17.72C53.94 15.88 55.04 15.08 55.04 15.08C56.14 14.28 58.32 14.28 58.32 14.28L61.22 14.28L61.22 13.8C61.22 12.76 60.72 12.32 60.72 12.32C60.22 11.88 58.78 11.88 58.78 11.88C57.66 11.88 56.46 12.1 56.46 12.1L56.46 9.96002C57.68 9.78002 59.04 9.78002 59.04 9.78002ZM58.18 19.02C59.28 19.02 60.08 18.61 60.08 18.61C60.88 18.2 61.22 17.48 61.22 17.48L61.22 16.06L58.66 16.06C57.44 16.06 56.93 16.39 56.93 16.39C56.42 16.72 56.42 17.64 56.42 17.64C56.42 18.36 56.84 18.69 56.84 18.69C57.26 19.02 58.18 19.02 58.18 19.02ZM73.18 20.98C71.58 20.98 70.45 20.67 70.45 20.67C69.32 20.36 68.41 19.59 68.41 19.59C67.5 18.82 67.05 17.39 67.05 17.39C66.6 15.96 66.6 13.84 66.6 13.84C66.6 10 68.3 8.35002 68.3 8.35002C70 6.70002 73.22 6.70002 73.22 6.70002C75.08 6.70002 76.4 7.14002 76.4 7.14002L76.4 9.44002C75.02 8.96002 73.38 8.96002 73.38 8.96002C71.28 8.96002 70.34 10.05 70.34 10.05C69.4 11.14 69.4 13.82 69.4 13.82C69.4 16.62 70.3 17.65 70.3 17.65C71.2 18.68 73.28 18.68 73.28 18.68C75.06 18.68 76.56 18.14 76.56 18.14L76.56 20.4C75.08 20.98 73.18 20.98 73.18 20.98ZM81.84 20.9C80.26 20.9 79.6 20.28 79.6 20.28C78.94 19.66 78.94 18.26 78.94 18.26L78.94 5.58002L81.44 5.58002L81.44 17.66C81.44 18.38 81.65 18.64 81.65 18.64C81.86 18.9 82.38 18.9 82.38 18.9C82.72 18.9 83.04 18.82 83.04 18.82L83.04 20.78C82.5 20.9 81.84 20.9 81.84 20.9Z"></path></g><defs><linearGradient id="linear_0" x1="87.09502024530565%" y1="88.714%" x2="0.01614217626641299%" y2="0%" gradientUnits="objectBoundingBox"><stop offset="0" stop-color="#CCCCCC" stop-opacity="0.01" /><stop offset="1" stop-color="#6B6B6B" stop-opacity="1" /></linearGradient><linearGradient id="linear_1" x1="100.0000500247133%" y1="100%" x2="21.57097155694852%" y2="21.969%" gradientUnits="objectBoundingBox"><stop offset="0" stop-color="#CCCCCC" stop-opacity="0.01" /><stop offset="1" stop-color="#6B6B6B" stop-opacity="1" /></linearGradient></defs></svg>