<svg xmlns="http://www.w3.org/2000/svg" xmlns:xlink="http://www.w3.org/1999/xlink" width="83.0400390625" height="27.01025390625" viewBox="0 0 83.0400390625 27.01025390625" fill="none"><g opacity="1"  transform="translate(0 0)"><g opacity="1"  transform="translate(0 0)"><path id="并集" fill-rule="evenodd" fill="url(#linear_0)" opacity="1" d="M27.01 0.03019L0.0084 0.000488281L0.0018 6.00049L0.0210965 6.00051L9.27448e-05 27.0043L6.00009 27.0103L6.0211 6.00711L27.0034 6.03019L27.01 0.03019Z"></path><path id="并集" fill-rule="evenodd" fill="url(#linear_1)" opacity="1" d="M21.044 26.4994L21.0445 26.9991L27.0445 26.9931L27.0175 0.00755119L21.0175 0.0135517L21.0385 21.0046L0.00514793 21.0046L0.00514793 27.0046L21.044 27.0046L21.044 26.4994Z"></path></g><path id="文本 1" fill-rule="evenodd" style="fill:#409EFF" opacity="1" d="M39.64 20.7801L39.64 6.90008L43.66 6.90008L48.7 17.3601L48.82 17.3601L48.82 6.90008L51.38 6.90008L51.38 20.7801L47.82 20.7801L42.34 9.66008L42.22 9.66008L42.22 20.7801L39.64 20.7801ZM59.04 9.78008C61.58 9.78008 62.65 10.6501 62.65 10.6501C63.72 11.5201 63.72 13.2401 63.72 13.2401L63.72 20.7801L61.5 20.7801L61.24 19.4001C60.84 20.1001 59.87 20.5401 59.87 20.5401C58.9 20.9801 57.64 20.9801 57.64 20.9801C53.94 20.9801 53.94 17.7201 53.94 17.7201C53.94 15.8801 55.04 15.0801 55.04 15.0801C56.14 14.2801 58.32 14.2801 58.32 14.2801L61.22 14.2801L61.22 13.8001C61.22 12.7601 60.72 12.3201 60.72 12.3201C60.22 11.8801 58.78 11.8801 58.78 11.8801C57.66 11.8801 56.46 12.1001 56.46 12.1001L56.46 9.96008C57.68 9.78008 59.04 9.78008 59.04 9.78008ZM58.18 19.0201C59.28 19.0201 60.08 18.6101 60.08 18.6101C60.88 18.2001 61.22 17.4801 61.22 17.4801L61.22 16.0601L58.66 16.0601C57.44 16.0601 56.93 16.3901 56.93 16.3901C56.42 16.7201 56.42 17.6401 56.42 17.6401C56.42 18.3601 56.84 18.6901 56.84 18.6901C57.26 19.0201 58.18 19.0201 58.18 19.0201ZM73.18 20.9801C71.58 20.9801 70.45 20.6701 70.45 20.6701C69.32 20.3601 68.41 19.5901 68.41 19.5901C67.5 18.8201 67.05 17.3901 67.05 17.3901C66.6 15.9601 66.6 13.8401 66.6 13.8401C66.6 10.0001 68.3 8.35008 68.3 8.35008C70 6.70008 73.22 6.70008 73.22 6.70008C75.08 6.70008 76.4 7.14008 76.4 7.14008L76.4 9.44008C75.02 8.96008 73.38 8.96008 73.38 8.96008C71.28 8.96008 70.34 10.0501 70.34 10.0501C69.4 11.1401 69.4 13.8201 69.4 13.8201C69.4 16.6201 70.3 17.6501 70.3 17.6501C71.2 18.6801 73.28 18.6801 73.28 18.6801C75.06 18.6801 76.56 18.1401 76.56 18.1401L76.56 20.4001C75.08 20.9801 73.18 20.9801 73.18 20.9801ZM81.84 20.9001C80.26 20.9001 79.6 20.2801 79.6 20.2801C78.94 19.6601 78.94 18.2601 78.94 18.2601L78.94 5.58008L81.44 5.58008L81.44 17.6601C81.44 18.3801 81.65 18.6401 81.65 18.6401C81.86 18.9001 82.38 18.9001 82.38 18.9001C82.72 18.9001 83.04 18.8201 83.04 18.8201L83.04 20.7801C82.5 20.9001 81.84 20.9001 81.84 20.9001Z"></path></g><defs><linearGradient id="linear_0" x1="87.09556927216845%" y1="88.714%" x2="0.01540238746265935%" y2="0%" gradientUnits="objectBoundingBox"><stop offset="0" stop-color="#CCCCCC" stop-opacity="0.01" /><stop offset="0.0943026836108199" stop-color="#BFC8D1" stop-opacity="0.1" /><stop offset="1" stop-color="#409EFF" stop-opacity="1" /></linearGradient><linearGradient id="linear_1" x1="100.00027221960892%" y1="100%" x2="21.570845221374764%" y2="21.969%" gradientUnits="objectBoundingBox"><stop offset="0" stop-color="#CCCCCC" stop-opacity="0.01" /><stop offset="1" stop-color="#409EFF" stop-opacity="1" /></linearGradient></defs></svg>