<svg width="16" height="15" viewBox="0 0 16 15" fill="none" xmlns="http://www.w3.org/2000/svg">
<path d="M15.4286 8H0.571429C0.256 8 0 7.744 0 7.42857C0 7.11314 0.256 6.85714 0.571429 6.85714H15.4286C15.7446 6.85714 16 7.11314 16 7.42857C16 7.744 15.7446 8 15.4286 8ZM13.7143 14.8571H10.2857C9.96972 14.8571 9.71429 14.6017 9.71429 14.2857C9.71429 13.9697 9.96972 13.7143 10.2857 13.7143H13.7143C14.0297 13.7143 14.2857 13.4583 14.2857 13.1429V10.2857C14.2857 9.96971 14.5411 9.71429 14.8571 9.71429C15.1731 9.71429 15.4286 9.96971 15.4286 10.2857V13.1429C15.4286 14.088 14.6594 14.8571 13.7143 14.8571ZM5.14286 14.8571H2.28571C1.34057 14.8571 0.571429 14.088 0.571429 13.1429V10.2857C0.571429 9.96971 0.827429 9.71429 1.14286 9.71429C1.45829 9.71429 1.71429 9.96971 1.71429 10.2857V13.1429C1.71429 13.4583 1.97086 13.7143 2.28571 13.7143H5.14286C5.45829 13.7143 5.71429 13.9697 5.71429 14.2857C5.71429 14.6017 5.45829 14.8571 5.14286 14.8571ZM1.14286 5.14286C0.827429 5.14286 0.571429 4.88686 0.571429 4.57143V1.71429C0.571429 0.769143 1.34057 0 2.28571 0H5.14286C5.45829 0 5.71429 0.256 5.71429 0.571429C5.71429 0.886857 5.45829 1.14286 5.14286 1.14286H2.28571C1.97086 1.14286 1.71429 1.39943 1.71429 1.71429V4.57143C1.71429 4.88686 1.45829 5.14286 1.14286 5.14286ZM14.8571 5.14286C14.5411 5.14286 14.2857 4.88686 14.2857 4.57143V1.71429C14.2857 1.39943 14.0297 1.14286 13.7143 1.14286H10.2857C9.96972 1.14286 9.71429 0.886857 9.71429 0.571429C9.71429 0.256 9.96972 0 10.2857 0H13.7143C14.6594 0 15.4286 0.769143 15.4286 1.71429V4.57143C15.4286 4.88686 15.1731 5.14286 14.8571 5.14286Z" fill="#272636"/>
</svg>
